<?xml version="1.0" standalone="no"?><!DOCTYPE svg PUBLIC "-//W3C//DTD SVG 1.1//EN" "http://www.w3.org/Graphics/SVG/1.1/DTD/svg11.dtd"><svg t="1590051916402" class="icon" viewBox="0 0 1024 1024" version="1.1" xmlns="http://www.w3.org/2000/svg" p-id="2294" xmlns:xlink="http://www.w3.org/1999/xlink" width="16" height="16"><defs><style type="text/css"></style></defs><path d="M640 256a85.333333 85.333333 0 0 0 85.333333 85.333333h85.333334a42.666667 42.666667 0 0 1 42.666666 42.666667v341.333333a42.666667 42.666667 0 0 1-42.666666 42.666667H213.333333a42.666667 42.666667 0 0 1-42.666666-42.666667V384a42.666667 42.666667 0 0 1 42.666666-42.666667h85.333334a85.333333 85.333333 0 0 0 85.333333-85.333333h256m0-42.666667H384a42.666667 42.666667 0 0 0-42.666667 42.666667 42.666667 42.666667 0 0 1-42.666666 42.666667h-85.333334a85.333333 85.333333 0 0 0-85.333333 85.333333v341.333333a85.333333 85.333333 0 0 0 85.333333 85.333334h597.333334a85.333333 85.333333 0 0 0 85.333333-85.333334V384a85.333333 85.333333 0 0 0-85.333333-85.333333h-85.333334a42.666667 42.666667 0 0 1-42.666666-42.666667 42.666667 42.666667 0 0 0-42.666667-42.666667z" fill="#bfbfbf" p-id="2295"></path><path d="M512 426.666667a106.666667 106.666667 0 1 1-106.666667 106.666666 106.666667 106.666667 0 0 1 106.666667-106.666666m0-42.666667a149.333333 149.333333 0 1 0 149.333333 149.333333 149.333333 149.333333 0 0 0-149.333333-149.333333z" fill="#bfbfbf" p-id="2296"></path></svg>